<mxfile host="65bd71144e">
    <diagram id="6Cr0KAtD1lpR0Fct-KgI" name="Page-1">
        <mxGraphModel dx="1054" dy="599" grid="1" gridSize="10" guides="1" tooltips="1" connect="1" arrows="1" fold="1" page="1" pageScale="1" pageWidth="850" pageHeight="1100" math="0" shadow="0">
            <root>
                <mxCell id="0"/>
                <mxCell id="1" parent="0"/>
                <mxCell id="16" value="alt" style="shape=umlFrame;whiteSpace=wrap;html=1;width=30;height=20;boundedLbl=1;verticalAlign=middle;align=left;spacingLeft=5;" parent="1" vertex="1">
                    <mxGeometry x="20" y="230" width="670" height="160" as="geometry"/>
                </mxCell>
                <mxCell id="2" value="" style="shape=umlLifeline;participant=umlActor;perimeter=lifelinePerimeter;whiteSpace=wrap;html=1;container=1;collapsible=0;recursiveResize=0;verticalAlign=top;spacingTop=36;outlineConnect=0;" parent="1" vertex="1">
                    <mxGeometry x="150" y="130" width="20" height="390" as="geometry"/>
                </mxCell>
                <mxCell id="11" value="" style="html=1;points=[];perimeter=orthogonalPerimeter;" parent="2" vertex="1">
                    <mxGeometry x="5" y="70" width="10" height="190" as="geometry"/>
                </mxCell>
                <mxCell id="3" value="Gerente/Funcionario" style="text;html=1;strokeColor=none;fillColor=none;align=center;verticalAlign=middle;whiteSpace=wrap;rounded=0;" parent="1" vertex="1">
                    <mxGeometry x="105" y="80" width="110" height="30" as="geometry"/>
                </mxCell>
                <mxCell id="4" value="" style="shape=umlLifeline;participant=umlBoundary;perimeter=lifelinePerimeter;whiteSpace=wrap;html=1;container=1;collapsible=0;recursiveResize=0;verticalAlign=top;spacingTop=36;outlineConnect=0;" parent="1" vertex="1">
                    <mxGeometry x="290" y="130" width="50" height="390" as="geometry"/>
                </mxCell>
                <mxCell id="12" value="" style="html=1;points=[];perimeter=orthogonalPerimeter;" parent="4" vertex="1">
                    <mxGeometry x="20" y="70" width="10" height="300" as="geometry"/>
                </mxCell>
                <mxCell id="5" value="" style="shape=umlLifeline;participant=umlControl;perimeter=lifelinePerimeter;whiteSpace=wrap;html=1;container=1;collapsible=0;recursiveResize=0;verticalAlign=top;spacingTop=36;outlineConnect=0;" parent="1" vertex="1">
                    <mxGeometry x="470" y="130" width="40" height="390" as="geometry"/>
                </mxCell>
                <mxCell id="13" value="" style="html=1;points=[];perimeter=orthogonalPerimeter;" parent="5" vertex="1">
                    <mxGeometry x="15" y="70" width="10" height="80" as="geometry"/>
                </mxCell>
                <mxCell id="21" value="" style="html=1;points=[];perimeter=orthogonalPerimeter;" parent="5" vertex="1">
                    <mxGeometry x="15" y="190" width="10" height="30" as="geometry"/>
                </mxCell>
                <mxCell id="7" value="Login" style="text;html=1;strokeColor=none;fillColor=none;align=center;verticalAlign=middle;whiteSpace=wrap;rounded=0;" parent="1" vertex="1">
                    <mxGeometry x="295" y="80" width="40" height="30" as="geometry"/>
                </mxCell>
                <mxCell id="8" value="BaseDados" style="text;html=1;strokeColor=none;fillColor=none;align=center;verticalAlign=middle;whiteSpace=wrap;rounded=0;" parent="1" vertex="1">
                    <mxGeometry x="450" y="80" width="70" height="30" as="geometry"/>
                </mxCell>
                <mxCell id="9" value="" style="shape=umlLifeline;participant=umlBoundary;perimeter=lifelinePerimeter;whiteSpace=wrap;html=1;container=1;collapsible=0;recursiveResize=0;verticalAlign=top;spacingTop=36;outlineConnect=0;" parent="1" vertex="1">
                    <mxGeometry x="630" y="130" width="50" height="390" as="geometry"/>
                </mxCell>
                <mxCell id="23" value="" style="html=1;points=[];perimeter=orthogonalPerimeter;" parent="9" vertex="1">
                    <mxGeometry x="20" y="300" width="10" height="80" as="geometry"/>
                </mxCell>
                <mxCell id="10" value="Bem-Vindo" style="text;html=1;strokeColor=none;fillColor=none;align=center;verticalAlign=middle;whiteSpace=wrap;rounded=0;" parent="1" vertex="1">
                    <mxGeometry x="620" y="80" width="70" height="30" as="geometry"/>
                </mxCell>
                <mxCell id="14" value="1: Login&amp;nbsp;" style="html=1;verticalAlign=bottom;endArrow=open;entryX=0.254;entryY=0.011;entryDx=0;entryDy=0;entryPerimeter=0;endFill=0;" parent="1" source="2" target="12" edge="1">
                    <mxGeometry width="80" relative="1" as="geometry">
                        <mxPoint x="240" y="210" as="sourcePoint"/>
                        <mxPoint x="320" y="210" as="targetPoint"/>
                    </mxGeometry>
                </mxCell>
                <mxCell id="15" value="1.1: authenticar Login" style="html=1;verticalAlign=bottom;endArrow=block;exitX=1.22;exitY=0.131;exitDx=0;exitDy=0;exitPerimeter=0;" parent="1" source="12" target="13" edge="1">
                    <mxGeometry width="80" relative="1" as="geometry">
                        <mxPoint x="320" y="240" as="sourcePoint"/>
                        <mxPoint x="400" y="240" as="targetPoint"/>
                    </mxGeometry>
                </mxCell>
                <mxCell id="17" value="" style="endArrow=none;dashed=1;html=1;exitX=0;exitY=0.516;exitDx=0;exitDy=0;exitPerimeter=0;entryX=1.002;entryY=0.499;entryDx=0;entryDy=0;entryPerimeter=0;" parent="1" source="16" target="16" edge="1">
                    <mxGeometry width="50" height="50" relative="1" as="geometry">
                        <mxPoint x="300" y="230" as="sourcePoint"/>
                        <mxPoint x="350" y="180" as="targetPoint"/>
                    </mxGeometry>
                </mxCell>
                <mxCell id="18" value="[authenticado]" style="text;html=1;strokeColor=none;fillColor=none;align=center;verticalAlign=middle;whiteSpace=wrap;rounded=0;" parent="1" vertex="1">
                    <mxGeometry x="30" y="260" width="80" height="30" as="geometry"/>
                </mxCell>
                <mxCell id="19" value="[se não]" style="text;html=1;strokeColor=none;fillColor=none;align=center;verticalAlign=middle;whiteSpace=wrap;rounded=0;" parent="1" vertex="1">
                    <mxGeometry x="30" y="320" width="80" height="30" as="geometry"/>
                </mxCell>
                <mxCell id="20" value="1.2: Authenticado" style="html=1;verticalAlign=bottom;endArrow=open;dashed=1;endSize=8;entryX=0.933;entryY=0.259;entryDx=0;entryDy=0;entryPerimeter=0;" parent="1" source="13" target="12" edge="1">
                    <mxGeometry relative="1" as="geometry">
                        <mxPoint x="370" y="210" as="sourcePoint"/>
                        <mxPoint x="290" y="210" as="targetPoint"/>
                    </mxGeometry>
                </mxCell>
                <mxCell id="22" value="2 : Não Authenticado" style="html=1;verticalAlign=bottom;endArrow=open;dashed=1;endSize=8;exitX=0.099;exitY=0.483;exitDx=0;exitDy=0;exitPerimeter=0;" parent="1" source="21" target="12" edge="1">
                    <mxGeometry relative="1" as="geometry">
                        <mxPoint x="495" y="287.70000000000005" as="sourcePoint"/>
                        <mxPoint x="329.3299999999999" y="287.70000000000005" as="targetPoint"/>
                    </mxGeometry>
                </mxCell>
                <mxCell id="24" value="3: Redireciona para Bem-Vindo" style="html=1;verticalAlign=bottom;endArrow=block;exitX=0.99;exitY=0.789;exitDx=0;exitDy=0;exitPerimeter=0;" parent="1" source="12" target="9" edge="1">
                    <mxGeometry width="80" relative="1" as="geometry">
                        <mxPoint x="290" y="380" as="sourcePoint"/>
                        <mxPoint x="370" y="380" as="targetPoint"/>
                    </mxGeometry>
                </mxCell>
            </root>
        </mxGraphModel>
    </diagram>
    <diagram name="Eng" id="B8K5mtnYqktKTkL2SSvF">
        <mxGraphModel dx="1054" dy="599" grid="1" gridSize="10" guides="1" tooltips="1" connect="1" arrows="1" fold="1" page="1" pageScale="1" pageWidth="850" pageHeight="1100" math="0" shadow="0">
            <root>
                <mxCell id="-t13xEeSBmg9MJNU5JB2-0"/>
                <mxCell id="-t13xEeSBmg9MJNU5JB2-1" parent="-t13xEeSBmg9MJNU5JB2-0"/>
                <mxCell id="-t13xEeSBmg9MJNU5JB2-2" value="alt" style="shape=umlFrame;whiteSpace=wrap;html=1;width=30;height=20;boundedLbl=1;verticalAlign=middle;align=left;spacingLeft=5;" vertex="1" parent="-t13xEeSBmg9MJNU5JB2-1">
                    <mxGeometry x="20" y="230" width="670" height="160" as="geometry"/>
                </mxCell>
                <mxCell id="-t13xEeSBmg9MJNU5JB2-3" value="" style="shape=umlLifeline;participant=umlActor;perimeter=lifelinePerimeter;whiteSpace=wrap;html=1;container=1;collapsible=0;recursiveResize=0;verticalAlign=top;spacingTop=36;outlineConnect=0;" vertex="1" parent="-t13xEeSBmg9MJNU5JB2-1">
                    <mxGeometry x="150" y="130" width="20" height="390" as="geometry"/>
                </mxCell>
                <mxCell id="-t13xEeSBmg9MJNU5JB2-4" value="" style="html=1;points=[];perimeter=orthogonalPerimeter;" vertex="1" parent="-t13xEeSBmg9MJNU5JB2-3">
                    <mxGeometry x="5" y="70" width="10" height="190" as="geometry"/>
                </mxCell>
                <mxCell id="-t13xEeSBmg9MJNU5JB2-5" value="Manager/Employee" style="text;html=1;strokeColor=none;fillColor=none;align=center;verticalAlign=middle;whiteSpace=wrap;rounded=0;" vertex="1" parent="-t13xEeSBmg9MJNU5JB2-1">
                    <mxGeometry x="105" y="80" width="110" height="30" as="geometry"/>
                </mxCell>
                <mxCell id="-t13xEeSBmg9MJNU5JB2-6" value="" style="shape=umlLifeline;participant=umlBoundary;perimeter=lifelinePerimeter;whiteSpace=wrap;html=1;container=1;collapsible=0;recursiveResize=0;verticalAlign=top;spacingTop=36;outlineConnect=0;" vertex="1" parent="-t13xEeSBmg9MJNU5JB2-1">
                    <mxGeometry x="290" y="130" width="50" height="390" as="geometry"/>
                </mxCell>
                <mxCell id="-t13xEeSBmg9MJNU5JB2-7" value="" style="html=1;points=[];perimeter=orthogonalPerimeter;" vertex="1" parent="-t13xEeSBmg9MJNU5JB2-6">
                    <mxGeometry x="20" y="70" width="10" height="300" as="geometry"/>
                </mxCell>
                <mxCell id="-t13xEeSBmg9MJNU5JB2-8" value="" style="shape=umlLifeline;participant=umlControl;perimeter=lifelinePerimeter;whiteSpace=wrap;html=1;container=1;collapsible=0;recursiveResize=0;verticalAlign=top;spacingTop=36;outlineConnect=0;" vertex="1" parent="-t13xEeSBmg9MJNU5JB2-1">
                    <mxGeometry x="470" y="130" width="40" height="390" as="geometry"/>
                </mxCell>
                <mxCell id="-t13xEeSBmg9MJNU5JB2-9" value="" style="html=1;points=[];perimeter=orthogonalPerimeter;" vertex="1" parent="-t13xEeSBmg9MJNU5JB2-8">
                    <mxGeometry x="15" y="70" width="10" height="80" as="geometry"/>
                </mxCell>
                <mxCell id="-t13xEeSBmg9MJNU5JB2-10" value="" style="html=1;points=[];perimeter=orthogonalPerimeter;" vertex="1" parent="-t13xEeSBmg9MJNU5JB2-8">
                    <mxGeometry x="15" y="190" width="10" height="30" as="geometry"/>
                </mxCell>
                <mxCell id="-t13xEeSBmg9MJNU5JB2-11" value="Login" style="text;html=1;strokeColor=none;fillColor=none;align=center;verticalAlign=middle;whiteSpace=wrap;rounded=0;" vertex="1" parent="-t13xEeSBmg9MJNU5JB2-1">
                    <mxGeometry x="295" y="80" width="40" height="30" as="geometry"/>
                </mxCell>
                <mxCell id="-t13xEeSBmg9MJNU5JB2-12" value="DataBase" style="text;html=1;strokeColor=none;fillColor=none;align=center;verticalAlign=middle;whiteSpace=wrap;rounded=0;" vertex="1" parent="-t13xEeSBmg9MJNU5JB2-1">
                    <mxGeometry x="450" y="80" width="70" height="30" as="geometry"/>
                </mxCell>
                <mxCell id="-t13xEeSBmg9MJNU5JB2-13" value="" style="shape=umlLifeline;participant=umlBoundary;perimeter=lifelinePerimeter;whiteSpace=wrap;html=1;container=1;collapsible=0;recursiveResize=0;verticalAlign=top;spacingTop=36;outlineConnect=0;" vertex="1" parent="-t13xEeSBmg9MJNU5JB2-1">
                    <mxGeometry x="630" y="130" width="50" height="390" as="geometry"/>
                </mxCell>
                <mxCell id="-t13xEeSBmg9MJNU5JB2-14" value="" style="html=1;points=[];perimeter=orthogonalPerimeter;" vertex="1" parent="-t13xEeSBmg9MJNU5JB2-13">
                    <mxGeometry x="20" y="300" width="10" height="80" as="geometry"/>
                </mxCell>
                <mxCell id="-t13xEeSBmg9MJNU5JB2-15" value="Welcome" style="text;html=1;strokeColor=none;fillColor=none;align=center;verticalAlign=middle;whiteSpace=wrap;rounded=0;" vertex="1" parent="-t13xEeSBmg9MJNU5JB2-1">
                    <mxGeometry x="620" y="80" width="70" height="30" as="geometry"/>
                </mxCell>
                <mxCell id="-t13xEeSBmg9MJNU5JB2-16" value="1: Login&amp;nbsp;" style="html=1;verticalAlign=bottom;endArrow=open;entryX=0.254;entryY=0.011;entryDx=0;entryDy=0;entryPerimeter=0;endFill=0;" edge="1" parent="-t13xEeSBmg9MJNU5JB2-1" source="-t13xEeSBmg9MJNU5JB2-3" target="-t13xEeSBmg9MJNU5JB2-7">
                    <mxGeometry width="80" relative="1" as="geometry">
                        <mxPoint x="240" y="210" as="sourcePoint"/>
                        <mxPoint x="320" y="210" as="targetPoint"/>
                    </mxGeometry>
                </mxCell>
                <mxCell id="-t13xEeSBmg9MJNU5JB2-17" value="1.1: authentiicate Login" style="html=1;verticalAlign=bottom;endArrow=block;exitX=1.22;exitY=0.131;exitDx=0;exitDy=0;exitPerimeter=0;" edge="1" parent="-t13xEeSBmg9MJNU5JB2-1" source="-t13xEeSBmg9MJNU5JB2-7" target="-t13xEeSBmg9MJNU5JB2-9">
                    <mxGeometry width="80" relative="1" as="geometry">
                        <mxPoint x="320" y="240" as="sourcePoint"/>
                        <mxPoint x="400" y="240" as="targetPoint"/>
                    </mxGeometry>
                </mxCell>
                <mxCell id="-t13xEeSBmg9MJNU5JB2-18" value="" style="endArrow=none;dashed=1;html=1;exitX=0;exitY=0.516;exitDx=0;exitDy=0;exitPerimeter=0;entryX=1.002;entryY=0.499;entryDx=0;entryDy=0;entryPerimeter=0;" edge="1" parent="-t13xEeSBmg9MJNU5JB2-1" source="-t13xEeSBmg9MJNU5JB2-2" target="-t13xEeSBmg9MJNU5JB2-2">
                    <mxGeometry width="50" height="50" relative="1" as="geometry">
                        <mxPoint x="300" y="230" as="sourcePoint"/>
                        <mxPoint x="350" y="180" as="targetPoint"/>
                    </mxGeometry>
                </mxCell>
                <mxCell id="-t13xEeSBmg9MJNU5JB2-19" value="[authenticated]" style="text;html=1;strokeColor=none;fillColor=none;align=center;verticalAlign=middle;whiteSpace=wrap;rounded=0;" vertex="1" parent="-t13xEeSBmg9MJNU5JB2-1">
                    <mxGeometry x="30" y="260" width="80" height="30" as="geometry"/>
                </mxCell>
                <mxCell id="-t13xEeSBmg9MJNU5JB2-20" value="[else]" style="text;html=1;strokeColor=none;fillColor=none;align=center;verticalAlign=middle;whiteSpace=wrap;rounded=0;" vertex="1" parent="-t13xEeSBmg9MJNU5JB2-1">
                    <mxGeometry x="30" y="320" width="80" height="30" as="geometry"/>
                </mxCell>
                <mxCell id="-t13xEeSBmg9MJNU5JB2-21" value="1.2: Authenticated" style="html=1;verticalAlign=bottom;endArrow=open;dashed=1;endSize=8;entryX=0.933;entryY=0.259;entryDx=0;entryDy=0;entryPerimeter=0;" edge="1" parent="-t13xEeSBmg9MJNU5JB2-1" source="-t13xEeSBmg9MJNU5JB2-9" target="-t13xEeSBmg9MJNU5JB2-7">
                    <mxGeometry relative="1" as="geometry">
                        <mxPoint x="370" y="210" as="sourcePoint"/>
                        <mxPoint x="290" y="210" as="targetPoint"/>
                    </mxGeometry>
                </mxCell>
                <mxCell id="-t13xEeSBmg9MJNU5JB2-22" value="2 : Unauthenticated" style="html=1;verticalAlign=bottom;endArrow=open;dashed=1;endSize=8;exitX=0.099;exitY=0.483;exitDx=0;exitDy=0;exitPerimeter=0;" edge="1" parent="-t13xEeSBmg9MJNU5JB2-1" source="-t13xEeSBmg9MJNU5JB2-10" target="-t13xEeSBmg9MJNU5JB2-7">
                    <mxGeometry relative="1" as="geometry">
                        <mxPoint x="495" y="287.70000000000005" as="sourcePoint"/>
                        <mxPoint x="329.3299999999999" y="287.70000000000005" as="targetPoint"/>
                    </mxGeometry>
                </mxCell>
                <mxCell id="-t13xEeSBmg9MJNU5JB2-23" value="3: Redict to Welcome" style="html=1;verticalAlign=bottom;endArrow=block;exitX=0.99;exitY=0.789;exitDx=0;exitDy=0;exitPerimeter=0;" edge="1" parent="-t13xEeSBmg9MJNU5JB2-1" source="-t13xEeSBmg9MJNU5JB2-7" target="-t13xEeSBmg9MJNU5JB2-13">
                    <mxGeometry width="80" relative="1" as="geometry">
                        <mxPoint x="290" y="380" as="sourcePoint"/>
                        <mxPoint x="370" y="380" as="targetPoint"/>
                    </mxGeometry>
                </mxCell>
            </root>
        </mxGraphModel>
    </diagram>
</mxfile>